<svg width="33" height="33" viewBox="0 0 33 33" fill="none" xmlns="http://www.w3.org/2000/svg">
<path d="M7.23517 24.3345C6.58217 24.3345 6.08136 24.1629 5.73273 23.8198C5.38409 23.4823 5.20978 23.0008 5.20978 22.3755V15.4443C5.20978 14.819 5.38409 14.3348 5.73273 13.9917C6.08136 13.6486 6.58217 13.4771 7.23517 13.4771H9.50958C10.1681 13.4771 10.6717 13.6486 11.0203 13.9917C11.369 14.3348 11.5433 14.8162 11.5433 15.436V22.3755C11.5433 23.0008 11.369 23.4823 11.0203 23.8198C10.6717 24.1629 10.1681 24.3345 9.50958 24.3345H7.23517ZM15.0545 24.3345C14.4015 24.3345 13.9007 24.1629 13.5521 23.8198C13.2034 23.4823 13.0291 23.0008 13.0291 22.3755V13.0122C13.0291 12.3869 13.2034 11.9027 13.5521 11.5596C13.9007 11.2165 14.4015 11.0449 15.0545 11.0449H17.3372C17.9902 11.0449 18.491 11.2165 18.8397 11.5596C19.1883 11.9027 19.3626 12.3841 19.3626 13.0039V22.3755C19.3626 23.0008 19.1883 23.4823 18.8397 23.8198C18.491 24.1629 17.9902 24.3345 17.3372 24.3345H15.0545ZM22.8738 24.3345C22.2264 24.3345 21.7283 24.1629 21.3797 23.8198C21.0311 23.4823 20.8568 23.0008 20.8568 22.3755V10.5884C20.8568 9.96305 21.0311 9.48161 21.3797 9.14404C21.7283 8.80094 22.2264 8.62939 22.8738 8.62939H25.1566C25.8095 8.62939 26.3104 8.80094 26.659 9.14404C27.0132 9.48161 27.1902 9.96305 27.1902 10.5884V22.3755C27.1902 23.0008 27.0132 23.4823 26.659 23.8198C26.3104 24.1629 25.8095 24.3345 25.1566 24.3345H22.8738Z" fill="#48B2FF"/>
</svg>
