<svg width="32" height="32" viewBox="0 0 32 32" fill="none" xmlns="http://www.w3.org/2000/svg">
<path d="M16 23.2534C14.8656 23.2534 13.7975 23.1151 12.7959 22.8384C11.7943 22.5672 10.8674 22.2075 10.0151 21.7593C9.16292 21.311 8.39925 20.8158 7.72412 20.2734C7.05452 19.7311 6.48177 19.1888 6.00586 18.6465C5.52995 18.1042 5.16748 17.6034 4.91846 17.144C4.66943 16.6792 4.54492 16.3029 4.54492 16.0151C4.54492 15.7716 4.639 15.459 4.82715 15.0771C5.02083 14.6898 5.30029 14.2664 5.66553 13.8071C6.03076 13.3423 6.47624 12.8691 7.00195 12.3877C7.52767 11.9062 8.12809 11.4525 8.80322 11.0264L10.2144 12.4292C9.67757 12.7668 9.19613 13.1182 8.77002 13.4834C8.34391 13.8431 7.97868 14.1917 7.67432 14.5293C7.37549 14.8613 7.14583 15.1602 6.98535 15.4258C6.8304 15.6859 6.75293 15.8823 6.75293 16.0151C6.75293 16.2088 6.85807 16.4744 7.06836 16.812C7.28418 17.1496 7.59131 17.5231 7.98975 17.9326C8.39372 18.3421 8.8724 18.7544 9.42578 19.1694C9.9847 19.5789 10.6073 19.958 11.2935 20.3066C11.9797 20.6497 12.7184 20.9264 13.5098 21.1367C14.3011 21.347 15.1312 21.4521 16 21.4521C16.4704 21.4521 16.9297 21.4162 17.3779 21.3442C17.8262 21.2723 18.2606 21.1782 18.6812 21.062L20.1836 22.5728C19.5527 22.783 18.8859 22.9491 18.1831 23.0708C17.4858 23.1925 16.7581 23.2534 16 23.2534ZM16 8.78516C17.1455 8.78516 18.2218 8.9235 19.229 9.2002C20.2417 9.47135 21.1714 9.83105 22.0181 10.2793C22.8703 10.7275 23.6312 11.2228 24.3008 11.7651C24.9704 12.3075 25.5376 12.8498 26.0024 13.3921C26.4728 13.9344 26.8298 14.438 27.0732 14.9028C27.3223 15.3621 27.4468 15.7329 27.4468 16.0151C27.4468 16.2586 27.3527 16.5713 27.1646 16.9531C26.9819 17.335 26.7163 17.7528 26.3677 18.2065C26.019 18.6548 25.5902 19.1169 25.0811 19.5928C24.5775 20.0687 24.002 20.5225 23.3545 20.9541L21.9683 19.5513C22.4718 19.2303 22.9229 18.8983 23.3213 18.5552C23.7253 18.2065 24.0711 17.869 24.3589 17.5425C24.6466 17.216 24.8652 16.9199 25.0146 16.6543C25.1641 16.3887 25.2388 16.1756 25.2388 16.0151C25.2388 15.8547 25.1309 15.6139 24.915 15.293C24.6992 14.972 24.3921 14.6068 23.9937 14.1973C23.5952 13.7822 23.1165 13.3672 22.5576 12.9521C22.0042 12.5316 21.3817 12.1442 20.6899 11.79C20.0037 11.4303 19.265 11.1426 18.4736 10.9268C17.6823 10.7054 16.8577 10.5947 16 10.5947C15.5573 10.5947 15.1312 10.6252 14.7217 10.686C14.3122 10.7469 13.911 10.8299 13.5181 10.9351L12.0073 9.43262C12.6216 9.22786 13.258 9.07015 13.9165 8.95947C14.5806 8.84326 15.2751 8.78516 16 8.78516ZM16 20.3647C15.3913 20.3647 14.8241 20.2513 14.2983 20.0244C13.7726 19.792 13.3105 19.4766 12.9121 19.0781C12.5137 18.6742 12.2038 18.2121 11.9824 17.6919C11.7611 17.1662 11.6476 16.61 11.6421 16.0234C11.6421 15.7301 11.6725 15.4479 11.7334 15.1768C11.7943 14.9001 11.8828 14.64 11.999 14.3965L17.6104 20.0078C17.3613 20.1185 17.1012 20.207 16.8301 20.2734C16.5645 20.3343 16.2878 20.3647 16 20.3647ZM20.0508 17.4595L14.5557 11.9561C14.777 11.8675 15.0067 11.8011 15.2446 11.7568C15.4881 11.707 15.7399 11.6821 16 11.6821C16.6032 11.6821 17.1676 11.7928 17.6934 12.0142C18.2191 12.2355 18.6812 12.5454 19.0796 12.9438C19.478 13.3368 19.7879 13.7961 20.0093 14.3218C20.2362 14.8475 20.3496 15.4119 20.3496 16.0151C20.3496 16.2697 20.3219 16.5187 20.2666 16.7622C20.2168 17.0057 20.1449 17.2381 20.0508 17.4595ZM22.5991 23.4443L8.40479 9.2583C8.27197 9.13102 8.20557 8.97331 8.20557 8.78516C8.20557 8.59147 8.27197 8.43099 8.40479 8.30371C8.5376 8.1709 8.69808 8.10726 8.88623 8.11279C9.07438 8.11279 9.23486 8.17643 9.36768 8.30371L23.562 22.4897C23.6948 22.6226 23.7612 22.7775 23.7612 22.9546C23.7668 23.1372 23.7004 23.3005 23.562 23.4443C23.4292 23.5882 23.2687 23.6574 23.0806 23.6519C22.8979 23.6463 22.7375 23.5771 22.5991 23.4443Z" fill="white" fill-opacity="0.4"/>
</svg>
