<svg width="34" height="22" viewBox="0 0 34 22" fill="none" xmlns="http://www.w3.org/2000/svg">
<path d="M17.332 20.0796C15.9375 20.0796 14.6149 19.908 13.3643 19.5649C12.1136 19.2274 10.9515 18.7764 9.87793 18.2119C8.8099 17.6475 7.84977 17.0277 6.99756 16.3525C6.14535 15.6774 5.41764 14.9995 4.81445 14.3188C4.21126 13.6326 3.74919 13.0018 3.42822 12.4263C3.10726 11.8452 2.94678 11.3748 2.94678 11.0151C2.94678 10.6554 3.10726 10.1878 3.42822 9.6123C3.74919 9.03125 4.21126 8.40039 4.81445 7.71973C5.41764 7.03353 6.14535 6.35286 6.99756 5.67773C7.85531 5.0026 8.8182 4.38558 9.88623 3.82666C10.9543 3.26221 12.1136 2.8112 13.3643 2.47363C14.6149 2.13053 15.9375 1.95898 17.332 1.95898C18.7376 1.95898 20.0685 2.13053 21.3247 2.47363C22.5809 2.8112 23.743 3.26221 24.811 3.82666C25.8791 4.38558 26.8364 5.0026 27.6831 5.67773C28.5353 6.35286 29.2603 7.03353 29.8579 7.71973C30.4556 8.40039 30.9121 9.03125 31.2275 9.6123C31.5485 10.1878 31.709 10.6554 31.709 11.0151C31.709 11.3748 31.5513 11.8452 31.2358 12.4263C30.9204 13.0018 30.4639 13.6326 29.8662 14.3188C29.2686 14.9995 28.5436 15.6774 27.6914 16.3525C26.8447 17.0277 25.8874 17.6475 24.8193 18.2119C23.7513 18.7764 22.5892 19.2274 21.333 19.5649C20.0768 19.908 18.7432 20.0796 17.332 20.0796ZM17.332 16.9585C18.1566 16.9585 18.9285 16.8035 19.6479 16.4937C20.3674 16.1838 21.001 15.7549 21.5488 15.207C22.0967 14.6536 22.5228 14.02 22.8271 13.3062C23.137 12.5923 23.292 11.8286 23.292 11.0151C23.292 10.1851 23.137 9.41032 22.8271 8.69092C22.5228 7.97152 22.0967 7.34066 21.5488 6.79834C21.001 6.25602 20.3674 5.83268 19.6479 5.52832C18.9285 5.22396 18.1566 5.07178 17.332 5.07178C16.502 5.07178 15.7244 5.22396 14.9995 5.52832C14.2801 5.83268 13.6465 6.25602 13.0986 6.79834C12.5508 7.34066 12.1219 7.97152 11.812 8.69092C11.5076 9.41032 11.3582 10.1851 11.3638 11.0151C11.3638 11.8286 11.516 12.5923 11.8203 13.3062C12.1302 14.02 12.5563 14.6536 13.0986 15.207C13.6465 15.7549 14.2801 16.1838 14.9995 16.4937C15.7244 16.8035 16.502 16.9585 17.332 16.9585ZM17.3403 13.0903C16.953 13.0903 16.5988 12.9963 16.2778 12.8081C15.9624 12.62 15.7078 12.3682 15.5142 12.0527C15.326 11.7373 15.2319 11.3914 15.2319 11.0151C15.2319 10.6333 15.326 10.2874 15.5142 9.97754C15.7078 9.66211 15.9624 9.41032 16.2778 9.22217C16.5988 9.03402 16.953 8.93994 17.3403 8.93994C17.7166 8.93994 18.0625 9.03402 18.3779 9.22217C18.6934 9.41032 18.9451 9.66211 19.1333 9.97754C19.327 10.2874 19.4238 10.6333 19.4238 11.0151C19.4238 11.3914 19.327 11.7373 19.1333 12.0527C18.9451 12.3682 18.6934 12.62 18.3779 12.8081C18.0625 12.9963 17.7166 13.0903 17.3403 13.0903Z" fill="#48B2FF"/>
</svg>
