<svg width="33" height="33" viewBox="0 0 33 33" fill="none" xmlns="http://www.w3.org/2000/svg">
<path d="M12.6318 10.4307C12.4437 10.4307 12.2943 10.486 12.1836 10.5967C12.0785 10.7074 12.0259 10.8595 12.0259 11.0532V12.3232C12.0259 12.5114 12.0785 12.6636 12.1836 12.7798C12.2943 12.8905 12.4437 12.9458 12.6318 12.9458H17.5376C17.7257 12.9458 17.8752 12.8905 17.9858 12.7798C18.0965 12.6636 18.1519 12.5114 18.1519 12.3232V11.0532C18.1519 10.8595 18.0965 10.7074 17.9858 10.5967C17.8752 10.486 17.7257 10.4307 17.5376 10.4307H12.6318ZM12.6318 13.6348C12.4437 13.6348 12.2943 13.6929 12.1836 13.8091C12.0785 13.9198 12.0259 14.0692 12.0259 14.2573V15.5273C12.0259 15.7155 12.0785 15.8677 12.1836 15.9839C12.2943 16.0946 12.4437 16.1499 12.6318 16.1499H20.1772C20.3654 16.1499 20.512 16.0946 20.6172 15.9839C20.7279 15.8677 20.7832 15.7155 20.7832 15.5273V14.2573C20.7832 14.0692 20.7279 13.9198 20.6172 13.8091C20.512 13.6929 20.3654 13.6348 20.1772 13.6348H12.6318ZM12.6318 16.8389C12.4437 16.8389 12.2943 16.8942 12.1836 17.0049C12.0785 17.1156 12.0259 17.265 12.0259 17.4531V18.7314C12.0259 18.9251 12.0785 19.0773 12.1836 19.188C12.2943 19.2931 12.4437 19.3457 12.6318 19.3457H18.791C18.9736 19.3457 19.1175 19.2931 19.2227 19.188C19.3333 19.0773 19.3887 18.9251 19.3887 18.7314V17.4531C19.3887 17.265 19.3333 17.1156 19.2227 17.0049C19.1175 16.8942 18.9736 16.8389 18.791 16.8389H12.6318ZM12.6318 20.043C12.4437 20.043 12.2943 20.1011 12.1836 20.2173C12.0785 20.328 12.0259 20.4774 12.0259 20.6655V21.9355C12.0259 22.1237 12.0785 22.2759 12.1836 22.3921C12.2943 22.5028 12.4437 22.5581 12.6318 22.5581H16.334C16.5111 22.5581 16.6549 22.5028 16.7656 22.3921C16.8818 22.2759 16.9399 22.1237 16.9399 21.9355V20.6655C16.9399 20.4774 16.8818 20.328 16.7656 20.2173C16.6549 20.1011 16.5111 20.043 16.334 20.043H12.6318ZM9.17871 22.749V10.2729C9.17871 9.35986 9.4139 8.6626 9.88428 8.18115C10.3602 7.69971 11.0547 7.45898 11.9678 7.45898H20.833C21.7406 7.45898 22.4323 7.69971 22.9082 8.18115C23.3841 8.6626 23.6221 9.35986 23.6221 10.2729V22.749C23.6221 23.6676 23.3841 24.3649 22.9082 24.8408C22.4323 25.3167 21.7406 25.5547 20.833 25.5547H11.9678C11.0547 25.5547 10.3602 25.3167 9.88428 24.8408C9.4139 24.3649 9.17871 23.6676 9.17871 22.749Z" fill="#48B2FF"/>
</svg>
