<svg width="33" height="33" viewBox="0 0 33 33" fill="none" xmlns="http://www.w3.org/2000/svg">
<path d="M10.864 24.3428C9.94539 24.3428 9.24536 24.1048 8.76392 23.6289C8.288 23.1585 8.05005 22.4696 8.05005 21.562V11.4766C8.05005 10.569 8.288 9.88005 8.76392 9.40967C9.24536 8.93376 9.94539 8.6958 10.864 8.6958H22.344C23.2626 8.6958 23.9599 8.93376 24.4358 9.40967C24.9117 9.88005 25.1497 10.569 25.1497 11.4766V21.562C25.1497 22.4696 24.9117 23.1585 24.4358 23.6289C23.9599 24.1048 23.2626 24.3428 22.344 24.3428H10.864ZM10.9138 22.5H22.2776C22.6096 22.5 22.8642 22.417 23.0413 22.251C23.2183 22.0794 23.3069 21.8193 23.3069 21.4707V13.917C23.3069 13.5739 23.2183 13.3193 23.0413 13.1533C22.8642 12.9818 22.6096 12.896 22.2776 12.896H10.9138C10.5873 12.896 10.3355 12.9818 10.1584 13.1533C9.98136 13.3193 9.89282 13.5739 9.89282 13.917V21.4707C9.89282 21.8193 9.98136 22.0794 10.1584 22.251C10.3355 22.417 10.5873 22.5 10.9138 22.5ZM15.0227 15.6934C14.8733 15.6934 14.7681 15.6657 14.7073 15.6104C14.6464 15.5495 14.616 15.4471 14.616 15.3032V14.8135C14.616 14.6641 14.6464 14.5617 14.7073 14.5063C14.7681 14.451 14.8733 14.4233 15.0227 14.4233H15.5042C15.6536 14.4233 15.7587 14.451 15.8196 14.5063C15.8805 14.5617 15.9109 14.6641 15.9109 14.8135V15.3032C15.9109 15.4471 15.8805 15.5495 15.8196 15.6104C15.7587 15.6657 15.6536 15.6934 15.5042 15.6934H15.0227ZM17.7039 15.6934C17.5544 15.6934 17.4493 15.6657 17.3884 15.6104C17.3331 15.5495 17.3054 15.4471 17.3054 15.3032V14.8135C17.3054 14.6641 17.3331 14.5617 17.3884 14.5063C17.4493 14.451 17.5544 14.4233 17.7039 14.4233H18.1936C18.343 14.4233 18.4454 14.451 18.5007 14.5063C18.5616 14.5617 18.592 14.6641 18.592 14.8135V15.3032C18.592 15.4471 18.5616 15.5495 18.5007 15.6104C18.4454 15.6657 18.343 15.6934 18.1936 15.6934H17.7039ZM20.385 15.6934C20.2356 15.6934 20.1305 15.6657 20.0696 15.6104C20.0087 15.5495 19.9783 15.4471 19.9783 15.3032V14.8135C19.9783 14.6641 20.0087 14.5617 20.0696 14.5063C20.1305 14.451 20.2356 14.4233 20.385 14.4233H20.8665C21.0214 14.4233 21.1265 14.451 21.1819 14.5063C21.2428 14.5617 21.2732 14.6641 21.2732 14.8135V15.3032C21.2732 15.4471 21.2428 15.5495 21.1819 15.6104C21.1265 15.6657 21.0214 15.6934 20.8665 15.6934H20.385ZM12.3416 18.333C12.1866 18.333 12.0787 18.3053 12.0178 18.25C11.9625 18.1891 11.9348 18.084 11.9348 17.9346V17.4531C11.9348 17.3037 11.9625 17.2013 12.0178 17.146C12.0787 17.0907 12.1866 17.063 12.3416 17.063H12.8313C12.9807 17.063 13.0831 17.0907 13.1384 17.146C13.1938 17.2013 13.2214 17.3037 13.2214 17.4531V17.9346C13.2214 18.084 13.1938 18.1891 13.1384 18.25C13.0831 18.3053 12.9807 18.333 12.8313 18.333H12.3416ZM15.0227 18.333C14.8733 18.333 14.7681 18.3053 14.7073 18.25C14.6464 18.1891 14.616 18.084 14.616 17.9346V17.4531C14.616 17.3037 14.6464 17.2013 14.7073 17.146C14.7681 17.0907 14.8733 17.063 15.0227 17.063H15.5042C15.6536 17.063 15.7587 17.0907 15.8196 17.146C15.8805 17.2013 15.9109 17.3037 15.9109 17.4531V17.9346C15.9109 18.084 15.8805 18.1891 15.8196 18.25C15.7587 18.3053 15.6536 18.333 15.5042 18.333H15.0227ZM17.7039 18.333C17.5544 18.333 17.4493 18.3053 17.3884 18.25C17.3331 18.1891 17.3054 18.084 17.3054 17.9346V17.4531C17.3054 17.3037 17.3331 17.2013 17.3884 17.146C17.4493 17.0907 17.5544 17.063 17.7039 17.063H18.1936C18.343 17.063 18.4454 17.0907 18.5007 17.146C18.5616 17.2013 18.592 17.3037 18.592 17.4531V17.9346C18.592 18.084 18.5616 18.1891 18.5007 18.25C18.4454 18.3053 18.343 18.333 18.1936 18.333H17.7039ZM20.385 18.333C20.2356 18.333 20.1305 18.3053 20.0696 18.25C20.0087 18.1891 19.9783 18.084 19.9783 17.9346V17.4531C19.9783 17.3037 20.0087 17.2013 20.0696 17.146C20.1305 17.0907 20.2356 17.063 20.385 17.063H20.8665C21.0214 17.063 21.1265 17.0907 21.1819 17.146C21.2428 17.2013 21.2732 17.3037 21.2732 17.4531V17.9346C21.2732 18.084 21.2428 18.1891 21.1819 18.25C21.1265 18.3053 21.0214 18.333 20.8665 18.333H20.385ZM12.3416 20.9727C12.1866 20.9727 12.0787 20.945 12.0178 20.8896C11.9625 20.8343 11.9348 20.7292 11.9348 20.5742V20.0928C11.9348 19.9434 11.9625 19.841 12.0178 19.7856C12.0787 19.7303 12.1866 19.7026 12.3416 19.7026H12.8313C12.9807 19.7026 13.0831 19.7303 13.1384 19.7856C13.1938 19.841 13.2214 19.9434 13.2214 20.0928V20.5742C13.2214 20.7292 13.1938 20.8343 13.1384 20.8896C13.0831 20.945 12.9807 20.9727 12.8313 20.9727H12.3416ZM15.0227 20.9727C14.8733 20.9727 14.7681 20.945 14.7073 20.8896C14.6464 20.8343 14.616 20.7292 14.616 20.5742V20.0928C14.616 19.9434 14.6464 19.841 14.7073 19.7856C14.7681 19.7303 14.8733 19.7026 15.0227 19.7026H15.5042C15.6536 19.7026 15.7587 19.7303 15.8196 19.7856C15.8805 19.841 15.9109 19.9434 15.9109 20.0928V20.5742C15.9109 20.7292 15.8805 20.8343 15.8196 20.8896C15.7587 20.945 15.6536 20.9727 15.5042 20.9727H15.0227ZM17.7039 20.9727C17.5544 20.9727 17.4493 20.945 17.3884 20.8896C17.3331 20.8343 17.3054 20.7292 17.3054 20.5742V20.0928C17.3054 19.9434 17.3331 19.841 17.3884 19.7856C17.4493 19.7303 17.5544 19.7026 17.7039 19.7026H18.1936C18.343 19.7026 18.4454 19.7303 18.5007 19.7856C18.5616 19.841 18.592 19.9434 18.592 20.0928V20.5742C18.592 20.7292 18.5616 20.8343 18.5007 20.8896C18.4454 20.945 18.343 20.9727 18.1936 20.9727H17.7039Z" fill="#48B2FF"/>
</svg>
